<?xml version="1.0" standalone="no"?><svg xmlns="http://www.w3.org/2000/svg" viewBox="0 0 1440 320"><path fill="#00cba9" fill-opacity="1" d="M0,96L14.1,101.3C28.2,107,56,117,85,149.3C112.9,181,141,235,169,234.7C197.6,235,226,181,254,160C282.4,139,311,149,339,165.3C367.1,181,395,203,424,197.3C451.8,192,480,160,508,144C536.5,128,565,128,593,117.3C621.2,107,649,85,678,85.3C705.9,85,734,107,762,133.3C790.6,160,819,192,847,224C875.3,256,904,288,932,293.3C960,299,988,277,1016,234.7C1044.7,192,1073,128,1101,96C1129.4,64,1158,64,1186,90.7C1214.1,117,1242,171,1271,176C1298.8,181,1327,139,1355,112C1383.5,85,1412,75,1426,69.3L1440,64L1440,0L1425.9,0C1411.8,0,1384,0,1355,0C1327.1,0,1299,0,1271,0C1242.4,0,1214,0,1186,0C1157.6,0,1129,0,1101,0C1072.9,0,1045,0,1016,0C988.2,0,960,0,932,0C903.5,0,875,0,847,0C818.8,0,791,0,762,0C734.1,0,706,0,678,0C649.4,0,621,0,593,0C564.7,0,536,0,508,0C480,0,452,0,424,0C395.3,0,367,0,339,0C310.6,0,282,0,254,0C225.9,0,198,0,169,0C141.2,0,113,0,85,0C56.5,0,28,0,14,0L0,0Z"></path></svg>